<svg width="40" height="39" viewBox="0 0 40 39" fill="none" xmlns="http://www.w3.org/2000/svg">
<path d="M38.1013 11.7788C37.3558 10.1055 36.3691 8.54614 35.1715 7.14851C33.401 5.02077 31.1916 3.2852 28.6886 2.05602C26.1857 0.826844 23.4459 0.131934 20.6496 0.0170269C17.8533 -0.0978801 15.0639 0.369818 12.465 1.38935C9.86614 2.40887 7.51669 3.95711 5.57129 5.93216C3.62589 7.9072 2.12865 10.2643 1.17813 12.8482C0.227602 15.4322 -0.154663 18.1845 0.0564947 20.9239C0.267652 23.6634 1.06744 26.3278 2.40323 28.742C3.73901 31.1562 5.5805 33.2653 7.8065 34.9305C9.23482 36.0203 10.8131 36.9063 12.4943 37.562C14.8514 38.5102 17.3741 38.9986 19.9215 39C25.1797 38.9886 30.2189 36.9311 33.9343 33.2787C37.6497 29.6262 39.7382 24.6768 39.7421 19.5152C39.7459 16.8528 39.1873 14.2186 38.1013 11.7788ZM19.9069 3.97055C22.1944 3.97031 24.4544 4.4611 26.5284 5.40854C26.0226 5.62304 25.4909 5.77286 24.9462 5.85432C23.154 6.10898 21.4938 6.92573 20.2133 8.18267C18.9328 9.43961 18.1007 11.0693 17.8413 12.8286C17.7274 13.8152 17.2703 14.7331 16.547 15.4273C15.8238 16.1215 14.8787 16.5496 13.8713 16.6392C12.0791 16.8939 10.4189 17.7107 9.13838 18.9676C7.85788 20.2245 7.02583 21.8543 6.7664 23.6135C6.67856 24.5516 6.2708 25.4332 5.6091 26.1156C4.46741 23.7476 3.95453 21.1346 4.11819 18.5197C4.28186 15.9049 5.11673 13.3731 6.54514 11.1601C7.97355 8.94714 9.94906 7.12481 12.2878 5.86273C14.6266 4.60064 17.2526 3.93983 19.9215 3.94179L19.9069 3.97055ZM7.79185 29.5812C7.96764 29.423 8.14344 29.2792 8.31923 29.1066C9.62251 27.8663 10.4591 26.229 10.6924 24.4619C10.787 23.4686 11.2388 22.5408 11.9669 21.8448C12.6675 21.1289 13.6105 20.6891 14.6184 20.6081C16.4107 20.3534 18.0709 19.5367 19.3514 18.2797C20.6319 17.0228 21.4639 15.3931 21.7234 13.6338C21.7867 12.5949 22.2409 11.6161 22.9979 10.8873C23.7158 10.1853 24.6678 9.76149 25.6787 9.69375C27.3252 9.47138 28.8607 8.7529 30.0735 7.63743C31.4544 8.76204 32.6244 10.1149 33.5307 11.635C33.4751 11.7089 33.4112 11.7764 33.3403 11.8364C32.641 12.5585 31.6992 13.008 30.6888 13.1018C28.8947 13.352 27.232 14.1673 25.9506 15.4251C24.6693 16.6828 23.8387 18.315 23.5838 20.076C23.4806 21.066 23.0319 21.9905 22.3137 22.6928C21.5955 23.3952 20.652 23.8322 19.6432 23.9299C17.8457 24.1826 16.1793 24.9977 14.8914 26.2541C13.6035 27.5106 12.7628 29.1413 12.4943 30.9041C12.4154 31.6069 12.1696 32.2817 11.7765 32.8742C10.2734 31.9982 8.9273 30.8857 7.79185 29.5812ZM19.9069 35.1318C18.4203 35.1334 16.941 34.9301 15.5121 34.5278C16.0008 33.6334 16.3186 32.6587 16.4496 31.6519C16.5523 30.6641 16.9989 29.7414 17.7141 29.0393C18.4293 28.3372 19.3694 27.8988 20.3756 27.7981C22.1705 27.5463 23.8341 26.7308 25.1174 25.4736C26.4008 24.2164 27.235 22.5851 27.4952 20.8238C27.5979 19.8361 28.0445 18.9133 28.7597 18.2112C29.4749 17.5092 30.415 17.0708 31.4212 16.97C32.7719 16.7975 34.0593 16.3039 35.1715 15.532C35.789 17.8298 35.8622 20.2359 35.3853 22.5657C34.9085 24.8955 33.8942 27.0872 32.4205 28.9725C30.9468 30.8579 29.0527 32.3868 26.8835 33.442C24.7143 34.4972 22.3278 35.0507 19.9069 35.0599V35.1318Z" fill="#4B4B4B"/>
</svg>
